<svg width="85" height="79" viewBox="0 0 85 79" fill="none" xmlns="http://www.w3.org/2000/svg">
<path d="M30.3073 0.0237779C29.749 0.0891765 29.2159 0.250559 28.7457 0.496475C28.7457 0.496475 23.8803 2.90844 18.6496 5.51737C13.4188 8.12326 7.59957 10.9958 6.2688 11.5776C6.18671 11.6057 6.1059 11.636 6.02649 11.6685C1.19573 14.0168 0.19188 17.8529 0.0188034 20.0043C0.00726495 20.1043 0.0188034 20.1861 0.0188034 20.2922C-0.0235043 21.0982 0.0188034 21.6163 0.0188034 21.6163V61.1987C0.0188034 66.9498 8.53034 69.7163 16.6073 69.7163C19.2996 69.7163 21.9919 69.3739 24.2996 68.7679C25.838 68.1619 26.9419 66.9498 26.9419 65.7378V33.9216C26.9419 26.9524 28.8649 23.6798 34.6342 20.9527C36.1726 20.3467 52.3034 11.5746 52.3034 11.5746C53.0726 10.9685 53.8649 9.73831 53.8649 8.82928V8.54445C53.8649 7.3324 53.0957 6.40519 51.9419 5.79917C50.788 5.19315 49.2496 5.19315 48.0957 5.79917C47.7111 6.10218 24.2496 18.5468 19.2496 20.6679C14.2496 23.092 9.58418 23.6768 8.43034 22.4648C8.07265 22.183 7.76111 21.3194 7.71111 20.477V20.3831V20.2861C7.71495 19.4619 7.98418 17.9105 10.115 16.8773C12.2765 15.9288 17.6419 13.229 22.8573 10.6292C25.0611 9.52923 25.3342 9.41106 27.0611 8.54445C27.2884 9.28468 27.8612 9.93033 28.6655 10.3529C29.4698 10.7754 30.4465 10.9438 31.4013 10.8247C32.3561 10.7055 33.2189 10.3074 33.818 9.70966C34.4171 9.11193 34.7085 8.3584 34.6342 7.59905V3.05389C34.6385 2.62199 34.5255 2.19436 34.3029 1.79966C34.0803 1.40497 33.7531 1.05232 33.3434 0.765378C32.9336 0.478432 32.4507 0.263814 31.9271 0.135911C31.4035 0.00800784 30.8512 -0.0302242 30.3073 0.0237779V0.0237779ZM61.0765 10.6292C60.4649 10.7093 59.8869 10.9047 59.3919 11.1988C59.3919 11.1988 40.0303 21.4618 36.6765 23.2223C36.6358 23.2539 36.5961 23.2863 36.5572 23.3193C33.7726 24.9646 32.1226 26.9221 31.388 28.7129C30.8688 29.9825 30.7919 31.0188 30.788 31.8399V32.7884C30.7825 32.8822 30.7825 32.9763 30.788 33.0702V69.7163C30.788 75.4735 39.2034 78.8066 46.8957 78.8066C50.3572 78.8066 53.4803 78.2188 55.788 77.0068C60.4034 74.8857 82.7111 61.1956 82.7111 61.1956C83.8649 60.5896 84.6342 59.7351 84.6342 58.8261V19.4347C84.6342 17.9196 83.888 17.0106 82.3495 16.4046C81.1957 15.7985 79.2995 16.0834 78.1457 16.6894C71.9918 20.3255 55.4265 30.5915 51.5803 32.4096C46.1957 34.8337 41.1226 35.4397 39.1996 33.9246C38.4303 33.3186 38.4803 32.749 38.4803 31.8399C38.5034 31.3188 38.5765 30.8703 38.7226 30.5127C38.938 29.9855 39.3765 29.3371 41.0034 28.3371C41.0803 28.2886 41.0419 28.2917 41.1226 28.2432C43.9034 26.7796 52.4072 22.2133 57.9534 19.2438C58.2676 19.9079 58.8674 20.4642 59.6484 20.816C60.4293 21.1677 61.3421 21.2927 62.228 21.1691C63.1138 21.0455 63.9166 20.6812 64.4968 20.1396C65.0769 19.5979 65.3977 18.9132 65.4034 18.2044V13.6593C65.4077 13.2274 65.2948 12.7997 65.0721 12.405C64.8495 12.0104 64.5224 11.6577 64.1126 11.3708C63.7028 11.0838 63.22 10.8692 62.6963 10.7413C62.1727 10.6134 61.6204 10.5752 61.0765 10.6292ZM76.9418 32.7884V38.8486L57.7111 50.5872V44.527L76.9418 32.7884Z" fill="#FFD369"/>
</svg>
