<svg width="68" height="78" viewBox="0 0 68 78" fill="none" xmlns="http://www.w3.org/2000/svg">
<path d="M25.8333 73.3882H42.5M5.00001 28.9359C5.00001 22.5877 8.07291 16.4995 13.5427 12.0107C19.0125 7.52181 26.4312 5 34.1667 5C41.9022 5 49.3208 7.52181 54.7906 12.0107C60.2604 16.4995 63.3333 22.5877 63.3333 28.9359C63.3361 32.7898 62.2003 36.5868 60.0232 40.0016C57.8462 43.4164 54.6929 46.3471 50.8333 48.5428L48.575 57.317C48.276 58.9342 47.2806 60.41 45.7692 61.4765C44.2579 62.543 42.3308 63.1297 40.3375 63.13H27.9958C26.0026 63.1297 24.0755 62.543 22.5641 61.4765C21.0528 60.41 20.0573 58.9342 19.7583 57.317L17.5 48.5804C13.6392 46.377 10.4857 43.4394 8.30897 40.0185C6.13222 36.5976 4.9969 32.7951 5.00001 28.9359Z" stroke="#FFD369" stroke-width="8.33333" stroke-linecap="round" stroke-linejoin="round"/>
</svg>
