<svg width="84" height="84" viewBox="0 0 84 84" fill="none" xmlns="http://www.w3.org/2000/svg">
<path d="M75.3333 0.333252H8.66665C6.45651 0.333252 4.33689 1.21123 2.77409 2.77403C1.21129 4.33683 0.333313 6.45645 0.333313 8.66658V58.6666C0.333313 60.8767 1.21129 62.9963 2.77409 64.5591C4.33689 66.1219 6.45651 66.9999 8.66665 66.9999H33.6666V75.3332H21.1666V83.6666H62.8333V75.3332H50.3333V66.9999H75.3333C77.5434 66.9999 79.6631 66.1219 81.2259 64.5591C82.7887 62.9963 83.6666 60.8767 83.6666 58.6666V8.66658C83.6666 6.45645 82.7887 4.33683 81.2259 2.77403C79.6631 1.21123 77.5434 0.333252 75.3333 0.333252ZM75.3333 58.6666H8.66665V8.66658H75.3333V58.6666Z" fill="#FFD369"/>
</svg>
