<svg width="100" height="83" viewBox="0 0 100 83" fill="none" xmlns="http://www.w3.org/2000/svg">
<path d="M93.75 23.4472H6.25C2.79824 23.4472 0 20.8228 0 17.5854V5.8618C0 2.62444 2.79824 0 6.25 0H93.75C97.2018 0 100 2.62444 100 5.8618V17.5854C100 20.8228 97.2018 23.4472 93.75 23.4472ZM84.375 7.32725C81.7861 7.32725 79.6875 9.29553 79.6875 11.7236C79.6875 14.1517 81.7861 16.1199 84.375 16.1199C86.9639 16.1199 89.0625 14.1517 89.0625 11.7236C89.0625 9.29553 86.9639 7.32725 84.375 7.32725ZM71.875 7.32725C69.2861 7.32725 67.1875 9.29553 67.1875 11.7236C67.1875 14.1517 69.2861 16.1199 71.875 16.1199C74.4639 16.1199 76.5625 14.1517 76.5625 11.7236C76.5625 9.29553 74.4639 7.32725 71.875 7.32725ZM93.75 52.7562H6.25C2.79824 52.7562 0 50.1318 0 46.8944V35.1708C0 31.9334 2.79824 29.309 6.25 29.309H93.75C97.2018 29.309 100 31.9334 100 35.1708V46.8944C100 50.1318 97.2018 52.7562 93.75 52.7562ZM84.375 36.6362C81.7861 36.6362 79.6875 38.6045 79.6875 41.0326C79.6875 43.4607 81.7861 45.4289 84.375 45.4289C86.9639 45.4289 89.0625 43.4607 89.0625 41.0326C89.0625 38.6045 86.9639 36.6362 84.375 36.6362ZM71.875 36.6362C69.2861 36.6362 67.1875 38.6045 67.1875 41.0326C67.1875 43.4607 69.2861 45.4289 71.875 45.4289C74.4639 45.4289 76.5625 43.4607 76.5625 41.0326C76.5625 38.6045 74.4639 36.6362 71.875 36.6362ZM93.75 82.0652H6.25C2.79824 82.0652 0 79.4407 0 76.2034V64.4798C0 61.2424 2.79824 58.618 6.25 58.618H93.75C97.2018 58.618 100 61.2424 100 64.4798V76.2034C100 79.4407 97.2018 82.0652 93.75 82.0652ZM84.375 65.9452C81.7861 65.9452 79.6875 67.9135 79.6875 70.3416C79.6875 72.7697 81.7861 74.7379 84.375 74.7379C86.9639 74.7379 89.0625 72.7697 89.0625 70.3416C89.0625 67.9135 86.9639 65.9452 84.375 65.9452ZM71.875 65.9452C69.2861 65.9452 67.1875 67.9135 67.1875 70.3416C67.1875 72.7697 69.2861 74.7379 71.875 74.7379C74.4639 74.7379 76.5625 72.7697 76.5625 70.3416C76.5625 67.9135 74.4639 65.9452 71.875 65.9452Z" fill="#FFD369"/>
</svg>
